<svg id="Layer_1" data-name="Layer 1" xmlns="http://www.w3.org/2000/svg" viewBox="0 0 284.07 325.27"><defs><style>.cls-1{fill:#fff;}.cls-1,.cls-2{stroke:#5a5252;stroke-miterlimit:10;stroke-width:15px;}.cls-2{fill:none;}</style></defs><title>LOGO</title><path class="cls-1" d="M203.08,279.37a45.19,45.19,0,0,1-3.55-63.81l.44-.5a45.19,45.19,0,0,1,63.81-3.55l60.62,54.23a94.9,94.9,0,0,0,.6-10.45V132.52a93.75,93.75,0,0,0-93.75-93.75H159.86a93.75,93.75,0,0,0-93.75,93.75V255.29A93.75,93.75,0,0,0,159.86,349h71.39a93.44,93.44,0,0,0,39.8-8.86Z" transform="translate(-58.61 -31.27)"/><path class="cls-2" d="M220.9,264.12h109A18.93,18.93,0,0,1,348.86,283v0A18.93,18.93,0,0,1,329.93,302H221.17A18.93,18.93,0,0,1,202.24,283v-.27a18.66,18.66,0,0,1,18.66-18.66Z" transform="translate(198.44 -142.81) rotate(41.55)"/></svg>