<?xml version="1.0" encoding="utf-8"?>
<!-- Generator: Adobe Illustrator 22.1.0, SVG Export Plug-In . SVG Version: 6.00 Build 0)  -->
<svg version="1.1" id="Layer_1" xmlns="http://www.w3.org/2000/svg" xmlns:xlink="http://www.w3.org/1999/xlink" x="0px" y="0px"
	 viewBox="0 0 400 400" style="enable-background:new 0 0 400 400;" xml:space="preserve">
<style type="text/css">
	.st0{fill:none;stroke:#000000;stroke-width:3;stroke-linejoin:round;stroke-miterlimit:10;}
	.st1{fill:none;stroke:#000000;stroke-width:3;stroke-miterlimit:10;}
	.st2{stroke:#000000;stroke-width:6;stroke-miterlimit:10;}
</style>
<g>
	<g>
		<g>
			<polygon class="st0" points="61.7,95.4 97.8,45.8 152.6,39.7 202.2,80.2 245.2,67.6 280.9,110.6 307,164.1 350.9,157.1 
				289.1,233.2 303,279.3 274.8,301.5 277,327.6 244.8,367.6 219.6,371.9 185.7,293.9 199.9,257.6 175.7,213.2 197.4,211.9 
				178.3,172.8 118.3,160.2 87.8,170.2 59.6,136.7 			"/>
			<line class="st0" x1="59.6" y1="136.7" x2="123.9" y2="105"/>
			<line class="st0" x1="61.7" y1="95.4" x2="123.9" y2="105"/>
			<line class="st0" x1="97.8" y1="45.8" x2="123.9" y2="105"/>
			<line class="st0" x1="152.6" y1="39.7" x2="123.9" y2="105"/>
			<line class="st0" x1="123.9" y1="105" x2="87.8" y2="170.2"/>
			<polyline class="st0" points="123.9,105 118.3,160.2 202.2,80.2 197.4,211.9 350.9,157.1 199.9,257.6 244.8,367.6 274.8,301.5 
				175.7,213.2 289.1,233.2 219.6,371.9 280.9,110.6 178.3,172.8 245.2,67.6 87.8,170.2 97.8,45.8 59.6,136.7 			"/>
			<polyline class="st0" points="152.6,39.7 178.3,172.8 123.9,105 280.9,110.6 197.4,211.9 289.1,233.2 185.7,293.9 277,327.6 
				199.9,257.6 303,279.3 307,164.1 59.6,136.7 202.2,80.2 274.8,301.5 97.8,45.8 			"/>
			<line class="st0" x1="242.7" y1="157" x2="245.2" y2="67.6"/>
			<line class="st0" x1="242.7" y1="157" x2="289.1" y2="233.2"/>
			<line class="st0" x1="242.7" y1="157" x2="209.7" y2="207.5"/>
			<polyline class="st0" points="242.7,157 178.3,172.8 209.7,207.5 			"/>
			<polyline class="st0" points="307,164.1 243.9,133 219.2,108.4 223.6,145.3 			"/>
			<line class="st0" x1="152.6" y1="39.7" x2="61.7" y2="95.4"/>
			<polyline class="st0" points="138.9,105.2 152.6,39.7 174.3,106.8 			"/>
		</g>
		<polygon class="st1" points="352.7,266.2 329,290.2 333,298.1 327,313.6 333,325.2 345.5,313.4 344.7,294.1 350.9,282.8 		"/>
	</g>
	<polyline class="st0" points="352.7,266.2 333,298.1 350.9,282.8 327,314.5 345.5,313.4 329,290.2 	"/>
	<polyline class="st0" points="333,325.2 337.8,313.6 336.9,301.3 344.7,294.1 329,290.2 350.9,282.8 	"/>
</g>
<g>
	<path class="st2" d="M97.8,41.9c-2.2,0-4,1.8-4,4c0,2.2,1.8,4,4,4c2.2,0,4-1.8,4-4C101.8,43.6,100,41.9,97.8,41.9z"/>
	<path class="st2" d="M152.6,35.8c-2.2,0-4,1.8-4,4c0,2.2,1.8,4,4,4c2.2,0,4-1.8,4-4C156.6,37.6,154.8,35.8,152.6,35.8z"/>
	<path class="st2" d="M245.2,63.6c-2.2,0-4,1.8-4,4c0,2.2,1.8,4,4,4c2.2,0,4-1.8,4-4C249.2,65.4,247.4,63.6,245.2,63.6z"/>
	<path class="st2" d="M202.2,76.1c-2.2,0-4,1.8-4,4c0,2.2,1.8,4,4,4c2.2,0,4-1.8,4-4C206.2,77.9,204.4,76.1,202.2,76.1z"/>
	<path class="st2" d="M280.9,106.8c-2.2,0-4,1.8-4,4c0,2.2,1.8,4,4,4c2.2,0,4-1.8,4-4C284.8,108.5,283.1,106.8,280.9,106.8z"/>
	<path class="st2" d="M243.9,128.8c-2.2,0-4,1.8-4,4c0,2.2,1.8,4,4,4c2.2,0,4-1.8,4-4C247.9,130.6,246.1,128.8,243.9,128.8z"/>
	<path class="st2" d="M246.6,157c0-2.2-1.8-4-4-4c-2.2,0-4,1.8-4,4c0,2.2,1.8,4,4,4C244.9,160.9,246.6,159.2,246.6,157z"/>
	<path class="st2" d="M235,170.8c0-1.6-1.3-3-3-3c-1.6,0-3,1.3-3,3c0,1.6,1.3,3,3,3C233.7,173.8,235,172.4,235,170.8z"/>
	<path class="st2" d="M265,188.6c0-1.6-1.3-3-3-3c-1.6,0-3,1.3-3,3c0,1.6,1.3,3,3,3C263.7,191.6,265,190.3,265,188.6z"/>
	<path class="st2" d="M219.2,112.3c2.2,0,4-1.8,4-4c0-2.2-1.8-4-4-4c-2.2,0-4,1.8-4,4C215.3,110.6,217.1,112.3,219.2,112.3z"/>
	<path class="st2" d="M174.3,108.7c1.1,0,2-0.9,2-2c0-1.1-0.9-2-2-2c-1.1,0-2,0.9-2,2C172.3,107.9,173.2,108.7,174.3,108.7z"/>
	<path class="st2" d="M169.7,94.9c1.1,0,2-0.9,2-2c0-1.1-0.9-2-2-2c-1.1,0-2,0.9-2,2C167.7,94.1,168.6,94.9,169.7,94.9z"/>
	<path class="st2" d="M163.5,97.4c1.1,0,2-0.9,2-2c0-1.1-0.9-2-2-2c-1.1,0-2,0.9-2,2C161.5,96.5,162.4,97.4,163.5,97.4z"/>
	<path class="st2" d="M129.8,94c1.1,0,2-0.9,2-2c0-1.1-0.9-2-2-2c-1.1,0-2,0.9-2,2C127.9,93.1,128.8,94,129.8,94z"/>
	<path class="st2" d="M111.3,67c1.1,0,2-0.9,2-2c0-1.1-0.9-2-2-2c-1.1,0-2,0.9-2,2C109.4,66.1,110.3,67,111.3,67z"/>
	<path class="st2" d="M107.2,69.5c1.1,0,2-0.9,2-2c0-1.1-0.9-2-2-2c-1.1,0-2,0.9-2,2C105.2,68.7,106.1,69.5,107.2,69.5z"/>
	<path class="st2" d="M95.5,76.3c1.1,0,2-0.9,2-2c0-1.1-0.9-2-2-2c-1.1,0-2,0.9-2,2C93.5,75.4,94.4,76.3,95.5,76.3z"/>
	<path class="st2" d="M82.1,84.6c1.1,0,2-0.9,2-2c0-1.1-0.9-2-2-2c-1.1,0-2,0.9-2,2C80.1,83.7,81,84.6,82.1,84.6z"/>
	<path class="st2" d="M93.5,102.6c1.1,0,2-0.9,2-2c0-1.1-0.9-2-2-2c-1.1,0-2,0.9-2,2C91.6,101.7,92.4,102.6,93.5,102.6z"/>
	<path class="st2" d="M75.9,99.3c1.1,0,2-0.9,2-2c0-1.1-0.9-2-2-2c-1.1,0-2,0.9-2,2C73.9,98.5,74.8,99.3,75.9,99.3z"/>
	<path class="st2" d="M91.7,122.8c1.1,0,2-0.9,2-2c0-1.1-0.9-2-2-2c-1.1,0-2,0.9-2,2C89.8,121.9,90.6,122.8,91.7,122.8z"/>
	<path class="st2" d="M91.7,126.5c1.1,0,2-0.9,2-2c0-1.1-0.9-2-2-2c-1.1,0-2,0.9-2,2C89.8,125.6,90.6,126.5,91.7,126.5z"/>
	<path class="st2" d="M90.5,142.1c1.1,0,2-0.9,2-2c0-1.1-0.9-2-2-2c-1.1,0-2,0.9-2,2C88.5,141.2,89.4,142.1,90.5,142.1z"/>
	<path class="st2" d="M103.2,143.6c1.1,0,2-0.9,2-2c0-1.1-0.9-2-2-2c-1.1,0-2,0.9-2,2C101.3,142.7,102.1,143.6,103.2,143.6z"/>
	<path class="st2" d="M120,145.1c1.1,0,2-0.9,2-2c0-1.1-0.9-2-2-2c-1.1,0-2,0.9-2,2C118,144.2,118.9,145.1,120,145.1z"/>
	<path class="st2" d="M127.6,146.5c1.1,0,2-0.9,2-2c0-1.1-0.9-2-2-2c-1.1,0-2,0.9-2,2C125.6,145.6,126.5,146.5,127.6,146.5z"/>
	<path class="st2" d="M134.3,147.1c1.1,0,2-0.9,2-2c0-1.1-0.9-2-2-2c-1.1,0-2,0.9-2,2C132.3,146.2,133.2,147.1,134.3,147.1z"/>
	<path class="st2" d="M119.4,114.7c1.1,0,2-0.9,2-2c0-1.1-0.9-2-2-2c-1.1,0-2,0.9-2,2C117.5,113.9,118.3,114.7,119.4,114.7z"/>
	<path class="st2" d="M127.9,111.7c1.1,0,2-0.9,2-2c0-1.1-0.9-2-2-2c-1.1,0-2,0.9-2,2C125.9,110.8,126.8,111.7,127.9,111.7z"/>
	<path class="st2" d="M123.7,113.6c1.1,0,2-0.9,2-2c0-1.1-0.9-2-2-2c-1.1,0-2,0.9-2,2C121.7,112.8,122.6,113.6,123.7,113.6z"/>
	<path class="st2" d="M165.5,108.7c1.1,0,2-0.9,2-2c0-1.1-0.9-2-2-2c-1.1,0-2,0.9-2,2C163.5,107.9,164.4,108.7,165.5,108.7z"/>
	<path class="st2" d="M166.4,115.7c1.1,0,2-0.9,2-2c0-1.1-0.9-2-2-2c-1.1,0-2,0.9-2,2C164.5,114.8,165.4,115.7,166.4,115.7z"/>
	<path class="st2" d="M167.7,120.1c1.1,0,2-0.9,2-2c0-1.1-0.9-2-2-2c-1.1,0-2,0.9-2,2C165.7,119.2,166.6,120.1,167.7,120.1z"/>
	<path class="st2" d="M173.9,151.7c1.1,0,2-0.9,2-2c0-1.1-0.9-2-2-2c-1.1,0-2,0.9-2,2C171.9,150.9,172.8,151.7,173.9,151.7z"/>
	<path class="st2" d="M169.2,151.2c1.1,0,2-0.9,2-2c0-1.1-0.9-2-2-2c-1.1,0-2,0.9-2,2C167.2,150.3,168.1,151.2,169.2,151.2z"/>
	<path class="st2" d="M175.1,159.3c1.1,0,2-0.9,2-2c0-1.1-0.9-2-2-2c-1.1,0-2,0.9-2,2C173.2,158.4,174,159.3,175.1,159.3z"/>
	<path class="st2" d="M158.1,149.8c1.1,0,2-0.9,2-2c0-1.1-0.9-2-2-2c-1.1,0-2,0.9-2,2C156.2,148.9,157,149.8,158.1,149.8z"/>
	<path class="st2" d="M200,140.2c1.1,0,2-0.9,2-2c0-1.1-0.9-2-2-2c-1.1,0-2,0.9-2,2C198,139.3,198.9,140.2,200,140.2z"/>
	<path class="st2" d="M213.8,118c1.1,0,2-0.9,2-2c0-1.1-0.9-2-2-2c-1.1,0-2,0.9-2,2C211.9,117.1,212.7,118,213.8,118z"/>
	<path class="st2" d="M243.9,111.2c1.1,0,2-0.9,2-2c0-1.1-0.9-2-2-2c-1.1,0-2,0.9-2,2C242,110.4,242.9,111.2,243.9,111.2z"/>
	<path class="st2" d="M206.5,94.9c1.1,0,2-0.9,2-2c0-1.1-0.9-2-2-2c-1.1,0-2,0.9-2,2C204.6,94.1,205.4,94.9,206.5,94.9z"/>
	<path class="st2" d="M201.4,97.9c1.1,0,2-0.9,2-2c0-1.1-0.9-2-2-2c-1.1,0-2,0.9-2,2C199.4,97.1,200.3,97.9,201.4,97.9z"/>
	<path class="st2" d="M184.2,109.3c1.1,0,2-0.9,2-2c0-1.1-0.9-2-2-2c-1.1,0-2,0.9-2,2C182.2,108.4,183.1,109.3,184.2,109.3z"/>
	<path class="st2" d="M201.4,109.7c1.1,0,2-0.9,2-2c0-1.1-0.9-2-2-2c-1.1,0-2,0.9-2,2C199.4,108.8,200.3,109.7,201.4,109.7z"/>
	<path class="st2" d="M192.1,153.7c1.1,0,2-0.9,2-2c0-1.1-0.9-2-2-2c-1.1,0-2,0.9-2,2C190.1,152.8,191,153.7,192.1,153.7z"/>
	<path class="st2" d="M210.5,155c1.1,0,2-0.9,2-2c0-1.1-0.9-2-2-2c-1.1,0-2,0.9-2,2C208.5,154.1,209.4,155,210.5,155z"/>
	<path class="st2" d="M199.5,154.3c1.1,0,2-0.9,2-2c0-1.1-0.9-2-2-2c-1.1,0-2,0.9-2,2C197.5,153.4,198.4,154.3,199.5,154.3z"/>
	<path class="st2" d="M199.5,162.1c1.1,0,2-0.9,2-2c0-1.1-0.9-2-2-2c-1.1,0-2,0.9-2,2C197.5,161.2,198.4,162.1,199.5,162.1z"/>
	<path class="st2" d="M199,169.8c1.1,0,2-0.9,2-2c0-1.1-0.9-2-2-2c-1.1,0-2,0.9-2,2C197,168.9,197.9,169.8,199,169.8z"/>
	<path class="st2" d="M228.5,162.6c1.1,0,2-0.9,2-2c0-1.1-0.9-2-2-2c-1.1,0-2,0.9-2,2C226.6,161.7,227.5,162.6,228.5,162.6z"/>
	<path class="st2" d="M226.6,157c1.1,0,2-0.9,2-2c0-1.1-0.9-2-2-2c-1.1,0-2,0.9-2,2C224.6,156.1,225.5,157,226.6,157z"/>
	<path class="st2" d="M257.1,141.5c1.1,0,2-0.9,2-2c0-1.1-0.9-2-2-2c-1.1,0-2,0.9-2,2C255.1,140.6,256,141.5,257.1,141.5z"/>
	<path class="st2" d="M269,162.1c1.1,0,2-0.9,2-2c0-1.1-0.9-2-2-2c-1.1,0-2,0.9-2,2C267,161.2,267.9,162.1,269,162.1z"/>
	<path class="st2" d="M306.2,188.6c1.1,0,2-0.9,2-2c0-1.1-0.9-2-2-2c-1.1,0-2,0.9-2,2C304.3,187.8,305.1,188.6,306.2,188.6z"/>
	<path class="st2" d="M307,175.1c1.1,0,2-0.9,2-2c0-1.1-0.9-2-2-2c-1.1,0-2,0.9-2,2C305,174.2,305.9,175.1,307,175.1z"/>
	<path class="st2" d="M305.6,215.4c1.1,0,2-0.9,2-2c0-1.1-0.9-2-2-2c-1.1,0-2,0.9-2,2C303.6,214.5,304.5,215.4,305.6,215.4z"/>
	<path class="st2" d="M272.4,149.2c1.1,0,2-0.9,2-2c0-1.1-0.9-2-2-2s-2,0.9-2,2C270.4,148.3,271.3,149.2,272.4,149.2z"/>
	<path class="st2" d="M153.4,128.5c1.1,0,2-0.9,2-2c0-1.1-0.9-2-2-2c-1.1,0-2,0.9-2,2C151.4,127.6,152.3,128.5,153.4,128.5z"/>
	<path class="st2" d="M146.5,134.7c1.1,0,2-0.9,2-2c0-1.1-0.9-2-2-2c-1.1,0-2,0.9-2,2C144.5,133.8,145.4,134.7,146.5,134.7z"/>
	<path class="st2" d="M223.2,146.5c1.1,0,2-0.9,2-2c0-1.1-0.9-2-2-2c-1.1,0-2,0.9-2,2C221.2,145.6,222.1,146.5,223.2,146.5z"/>
	<path class="st2" d="M209.9,209.8c1.1,0,2-0.9,2-2c0-1.1-0.9-2-2-2c-1.1,0-2,0.9-2,2C208,208.9,208.8,209.8,209.9,209.8z"/>
	<path class="st2" d="M215.5,218.2c1.1,0,2-0.9,2-2c0-1.1-0.9-2-2-2c-1.1,0-2,0.9-2,2C213.5,217.3,214.4,218.2,215.5,218.2z"/>
	<path class="st2" d="M219.1,222.8c1.1,0,2-0.9,2-2c0-1.1-0.9-2-2-2c-1.1,0-2,0.9-2,2C217.1,222,218,222.8,219.1,222.8z"/>
	<path class="st2" d="M230.4,239.1c1.1,0,2-0.9,2-2c0-1.1-0.9-2-2-2c-1.1,0-2,0.9-2,2C228.4,238.3,229.3,239.1,230.4,239.1z"/>
	<path class="st2" d="M214.5,249.9c1.1,0,2-0.9,2-2c0-1.1-0.9-2-2-2c-1.1,0-2,0.9-2,2C212.5,249,213.4,249.9,214.5,249.9z"/>
	<path class="st2" d="M234.3,267.1c1.1,0,2-0.9,2-2c0-1.1-0.9-2-2-2c-1.1,0-2,0.9-2,2C232.3,266.3,233.2,267.1,234.3,267.1z"/>
	<path class="st2" d="M219.1,276.9c1.1,0,2-0.9,2-2c0-1.1-0.9-2-2-2c-1.1,0-2,0.9-2,2C217.1,276,218,276.9,219.1,276.9z"/>
	<path class="st2" d="M209.2,282.2c1.1,0,2-0.9,2-2c0-1.1-0.9-2-2-2c-1.1,0-2,0.9-2,2C207.2,281.3,208.1,282.2,209.2,282.2z"/>
	<path class="st2" d="M219.6,308.2c1.1,0,2-0.9,2-2c0-1.1-0.9-2-2-2c-1.1,0-2,0.9-2,2C217.6,307.3,218.5,308.2,219.6,308.2z"/>
	<path class="st2" d="M238.2,294.1c1.1,0,2-0.9,2-2c0-1.1-0.9-2-2-2c-1.1,0-2,0.9-2,2C236.3,293.2,237.2,294.1,238.2,294.1z"/>
	<path class="st2" d="M252.7,307.1c1.1,0,2-0.9,2-2c0-1.1-0.9-2-2-2c-1.1,0-2,0.9-2,2C250.7,306.3,251.6,307.1,252.7,307.1z"/>
	<path class="st2" d="M247.6,318.4c1.1,0,2-0.9,2-2c0-1.1-0.9-2-2-2c-1.1,0-2,0.9-2,2C245.6,317.5,246.5,318.4,247.6,318.4z"/>
	<path class="st2" d="M267,320.4c1.1,0,2-0.9,2-2c0-1.1-0.9-2-2-2c-1.1,0-2,0.9-2,2C265,319.5,265.9,320.4,267,320.4z"/>
	<path class="st2" d="M265,325.2c1.1,0,2-0.9,2-2c0-1.1-0.9-2-2-2c-1.1,0-2,0.9-2,2C263,324.3,263.9,325.2,265,325.2z"/>
	<path class="st2" d="M234.3,344.2c1.1,0,2-0.9,2-2c0-1.1-0.9-2-2-2c-1.1,0-2,0.9-2,2C232.3,343.3,233.2,344.2,234.3,344.2z"/>
	<path class="st2" d="M233.6,313.6c1.1,0,2-0.9,2-2c0-1.1-0.9-2-2-2c-1.1,0-2,0.9-2,2C231.6,312.8,232.5,313.6,233.6,313.6z"/>
	<path class="st2" d="M229.6,331.5c1.1,0,2-0.9,2-2c0-1.1-0.9-2-2-2c-1.1,0-2,0.9-2,2C227.6,330.6,228.5,331.5,229.6,331.5z"/>
	<path class="st2" d="M242.7,274.9c1.1,0,2-0.9,2-2c0-1.1-0.9-2-2-2c-1.1,0-2,0.9-2,2C240.7,274,241.6,274.9,242.7,274.9z"/>
	<path class="st2" d="M251.5,270.1c1.1,0,2-0.9,2-2c0-1.1-0.9-2-2-2c-1.1,0-2,0.9-2,2C249.5,269.3,250.4,270.1,251.5,270.1z"/>
	<path class="st2" d="M244.1,269.1c1.1,0,2-0.9,2-2c0-1.1-0.9-2-2-2c-1.1,0-2,0.9-2,2C242.1,268.2,243,269.1,244.1,269.1z"/>
	<path class="st2" d="M264.8,272.9c1.1,0,2-0.9,2-2c0-1.1-0.9-2-2-2c-1.1,0-2,0.9-2,2C262.9,272,263.8,272.9,264.8,272.9z"/>
	<path class="st2" d="M269.5,274.1c1.1,0,2-0.9,2-2c0-1.1-0.9-2-2-2c-1.1,0-2,0.9-2,2C267.5,273.2,268.4,274.1,269.5,274.1z"/>
	<path class="st2" d="M337.9,315.6c1.1,0,2-0.9,2-2c0-1.1-0.9-2-2-2c-1.1,0-2,0.9-2,2C335.9,314.7,336.8,315.6,337.9,315.6z"/>
	<path class="st2" d="M344.8,296.1c1.1,0,2-0.9,2-2c0-1.1-0.9-2-2-2s-2,0.9-2,2C342.8,295.2,343.7,296.1,344.8,296.1z"/>
	<path class="st2" d="M333.5,299.2c1.1,0,2-0.9,2-2c0-1.1-0.9-2-2-2s-2,0.9-2,2C331.5,298.3,332.4,299.2,333.5,299.2z"/>
	<path class="st2" d="M339.9,288.2c1.1,0,2-0.9,2-2c0-1.1-0.9-2-2-2c-1.1,0-2,0.9-2,2C338,287.3,338.8,288.2,339.9,288.2z"/>
	<path class="st2" d="M352.7,268.2c1.1,0,2-0.9,2-2c0-1.1-0.9-2-2-2s-2,0.9-2,2C350.7,267.3,351.6,268.2,352.7,268.2z"/>
	<path class="st2" d="M266.8,278.8c1.1,0,2-0.9,2-2c0-1.1-0.9-2-2-2c-1.1,0-2,0.9-2,2C264.8,278,265.7,278.8,266.8,278.8z"/>
	<path class="st2" d="M263.3,286.5c1.1,0,2-0.9,2-2c0-1.1-0.9-2-2-2c-1.1,0-2,0.9-2,2C261.3,285.6,262.2,286.5,263.3,286.5z"/>
	<path class="st2" d="M251.5,230.8c3.2,0,5.8-2.6,5.8-5.8c0-3.2-2.6-5.8-5.8-5.8c-3.2,0-5.8,2.6-5.8,5.8
		C245.8,228.2,248.3,230.8,251.5,230.8z"/>
	<path class="st2" d="M138.9,101c-2.2,0-4,1.8-4,4c0,2.2,1.8,4,4,4c2.2,0,4-1.8,4-4C142.9,102.8,141.1,101,138.9,101z"/>
	<path class="st2" d="M123.9,101c-2.2,0-4,1.8-4,4c0,2.2,1.8,4,4,4c2.2,0,4-1.8,4-4C127.9,102.8,126.1,101,123.9,101z"/>
	<circle class="st2" cx="61.7" cy="95.4" r="4"/>
	<path class="st2" d="M59.6,132.7c-2.2,0-4,1.8-4,4c0,2.2,1.8,4,4,4c2.2,0,4-1.8,4-4C63.5,134.5,61.8,132.7,59.6,132.7z"/>
	<path class="st2" d="M87.8,164.9c-2.2,0-4,1.8-4,4c0,2.2,1.8,4,4,4c2.2,0,4-1.8,4-4C91.8,166.7,90,164.9,87.8,164.9z"/>
	<path class="st2" d="M118.4,156.2c-2.2,0-4,1.8-4,4c0,2.2,1.8,4,4,4c2.2,0,4-1.8,4-4C122.4,157.9,120.6,156.2,118.4,156.2z"/>
	<path class="st2" d="M178.3,168.9c-2.2,0-4,1.8-4,4c0,2.2,1.8,4,4,4c2.2,0,4-1.8,4-4C182.2,170.6,180.4,168.9,178.3,168.9z"/>
	<path class="st2" d="M202.1,211.5c0-2.2-1.8-4-4-4c-2.2,0-4,1.8-4,4c0,2.2,1.8,4,4,4C200.3,215.4,202.1,213.7,202.1,211.5z"/>
	<path class="st2" d="M248.8,258.9c0-1.7-1.4-3.1-3.1-3.1c-1.7,0-3.1,1.4-3.1,3.1c0,1.7,1.4,3.1,3.1,3.1
		C247.5,262,248.8,260.6,248.8,258.9z"/>
	<path class="st2" d="M339.9,301.2c0-1.7-1.4-3.1-3.1-3.1c-1.7,0-3.1,1.4-3.1,3.1c0,1.7,1.4,3.1,3.1,3.1
		C338.6,304.3,339.9,302.9,339.9,301.2z"/>
	<path class="st2" d="M336.5,325.2c0-1.7-1.4-3.1-3.1-3.1c-1.7,0-3.1,1.4-3.1,3.1c0,1.7,1.4,3.1,3.1,3.1
		C335.2,328.3,336.5,326.9,336.5,325.2z"/>
	<path class="st2" d="M176.3,209.8c-2.2,0-4,1.8-4,4c0,2.2,1.8,4,4,4c2.2,0,4-1.8,4-4C180.2,211.6,178.4,209.8,176.3,209.8z"/>
	<circle class="st2" cx="200" cy="258.1" r="4"/>
	<path class="st2" d="M185.8,290.2c-2.2,0-4,1.8-4,4c0,2.2,1.8,4,4,4c2.2,0,4-1.8,4-4C189.8,291.9,188,290.2,185.8,290.2z"/>
	<path class="st2" d="M219.8,366.7c-2.2,0-4,1.8-4,4c0,2.2,1.8,4,4,4c2.2,0,4-1.8,4-4C223.8,368.4,222,366.7,219.8,366.7z"/>
	<path class="st2" d="M244.8,362.7c-2.2,0-4,1.8-4,4c0,2.2,1.8,4,4,4c2.2,0,4-1.8,4-4C248.8,364.5,247,362.7,244.8,362.7z"/>
	<path class="st2" d="M276.3,322.9c-2.2,0-4,1.8-4,4c0,2.2,1.8,4,4,4c2.2,0,4-1.8,4-4C280.3,324.7,278.5,322.9,276.3,322.9z"/>
	<path class="st2" d="M288.8,229.3c-2.2,0-4,1.8-4,4c0,2.2,1.8,4,4,4c2.2,0,4-1.8,4-4C292.8,231,291,229.3,288.8,229.3z"/>
	<path class="st2" d="M303,274.9c-2.2,0-4,1.8-4,4c0,2.2,1.8,4,4,4c2.2,0,4-1.8,4-4C307,276.7,305.2,274.9,303,274.9z"/>
	<path class="st2" d="M349.9,280.2c-2.2,0-4,1.8-4,4c0,2.2,1.8,4,4,4c2.2,0,4-1.8,4-4C353.8,282,352.1,280.2,349.9,280.2z"/>
	<path class="st2" d="M327,309.7c-2.2,0-4,1.8-4,4c0,2.2,1.8,4,4,4c2.2,0,4-1.8,4-4C331,311.5,329.2,309.7,327,309.7z"/>
	<path class="st2" d="M344.7,309.7c-2.2,0-4,1.8-4,4c0,2.2,1.8,4,4,4c2.2,0,4-1.8,4-4C348.7,311.5,346.9,309.7,344.7,309.7z"/>
	<path class="st2" d="M329.5,286.2c-2.2,0-4,1.8-4,4c0,2.2,1.8,4,4,4c2.2,0,4-1.8,4-4C333.5,288,331.7,286.2,329.5,286.2z"/>
	<path class="st2" d="M279.1,301.2c0-2.2-1.8-4-4-4c-2.2,0-4,1.8-4,4c0,2.2,1.8,4,4,4C277.4,305.2,279.1,303.4,279.1,301.2z"/>
	<path class="st2" d="M348.7,154.6c-2.2,0-4,1.8-4,4c0,2.2,1.8,4,4,4c2.2,0,4-1.8,4-4C352.7,156.4,350.9,154.6,348.7,154.6z"/>
	<path class="st2" d="M240.7,192.3c-2.2,0-4,1.8-4,4c0,2.2,1.8,4,4,4c2.2,0,4-1.8,4-4C244.7,194.1,242.9,192.3,240.7,192.3z"/>
	<path class="st2" d="M307.5,160.1c-2.2,0-4,1.8-4,4c0,2.2,1.8,4,4,4c2.2,0,4-1.8,4-4C311.5,161.9,309.7,160.1,307.5,160.1z"/>
</g>
</svg>
